<?xml version="1.0"?>
<svg xmlns="http://www.w3.org/2000/svg" height="512px" viewBox="-16 0 512 512" width="512px"><path d="m385.632812 200.105469 94.863282-33.511719-58.851563-166.59375-95.191406 33.628906zm0 0" fill="#eeeeee"/><path d="m81.144531 156.976562-81.144531 28.664063 35.800781 101.351563 81.347657-28.734376zm0 0" fill="#eeeeee"/><path d="m303.394531 250.28125c0-12.355469-4.707031-23.632812-12.414062-32.140625l61.417969-21.695313-49.449219-139.117187-200.164063 70.710937 49.453125 139.113282 55.433594-19.582032c-.050781.898438-.078125 1.800782-.078125 2.710938 0 9.152344 2.582031 17.707031 7.050781 24.988281l-87.273437 236.730469h32.0625l18.980468-51.484375h62.035157v51.484375h30.085937v-51.484375h62.273438l18.976562 51.484375h32.066406l-87.363281-236.972656c4.378907-7.226563 6.90625-15.699219 6.90625-24.746094zm-62.945312 180.148438h-50.941407l49.796876-135.070313c.378906.136719.761718.261719 1.144531.386719zm81.265625 0h-51.179688v-134.683594c.453125-.148438.910156-.296875 1.359375-.460938zm0 0" fill="#eeeeee"/></svg>
